<svg version="1.1" viewBox="0.0 0.0 516.3622047244095 585.6299212598425" fill="none" stroke="none" stroke-linecap="square" stroke-miterlimit="10" xmlns:xlink="http://www.w3.org/1999/xlink" xmlns="http://www.w3.org/2000/svg"><clipPath id="p.0"><path d="m0 0l516.3622 0l0 585.62994l-516.3622 0l0 -585.62994z" clip-rule="nonzero"/></clipPath><g clip-path="url(#p.0)"><path fill="#000000" fill-opacity="0.0" d="m0 0l516.3622 0l0 585.62994l-516.3622 0z" fill-rule="evenodd"/><path fill="#000000" fill-opacity="0.0" d="m12.936649 433.8018l0 0c-24.718004 -43.17389 65.10002 -141.10718 200.61418 -218.74016l0 0c135.51414 -77.632965 265.40796 -105.56758 290.12598 -62.393707l0 0c24.718018 43.17389 -65.10004 141.1072 -200.6142 218.74016l0 0c-135.51414 77.632965 -265.40796 105.5676 -290.12598 62.393707z" fill-rule="evenodd"/><path stroke="#2337fe" stroke-width="12.0" stroke-linejoin="round" stroke-linecap="butt" d="m12.936649 433.8018l0 0c-24.718004 -43.17389 65.10002 -141.10718 200.61418 -218.74016l0 0c135.51414 -77.632965 265.40796 -105.56758 290.12598 -62.393707l0 0c24.718018 43.17389 -65.10004 141.1072 -200.6142 218.74016l0 0c-135.51414 77.632965 -265.40796 105.5676 -290.12598 62.393707z" fill-rule="evenodd"/><path fill="#000000" fill-opacity="0.0" d="m16.291037 146.96729l0 0c25.744299 -42.57376 154.96832 -11.600327 288.6299 69.18111l0 0c133.66162 80.78142 221.14587 180.78056 195.40158 223.35432l0 0c-25.744293 42.57376 -154.96832 11.600342 -288.62994 -69.18109l0 0c-133.6616 -80.78143 -221.14587 -180.78058 -195.40158 -223.35434z" fill-rule="evenodd"/><path stroke="#2337fe" stroke-width="12.0" stroke-linejoin="round" stroke-linecap="butt" d="m16.291037 146.96729l0 0c25.744299 -42.57376 154.96832 -11.600327 288.6299 69.18111l0 0c133.66162 80.78142 221.14587 180.78056 195.40158 223.35432l0 0c-25.744293 42.57376 -154.96832 11.600342 -288.62994 -69.18109l0 0c-133.6616 -80.78143 -221.14587 -180.78058 -195.40158 -223.35434z" fill-rule="evenodd"/><path fill="#94c1ff" d="m225.20074 308.9066l0 0c-8.575638 -14.985626 -3.2735596 -34.14923 11.842514 -42.80316l0 0c7.2590027 -4.1557617 15.856613 -5.2825623 23.901474 -3.1325378c8.044891 2.1500244 14.877991 7.400757 18.996155 14.597107l0 0c8.575653 14.985626 3.2735596 34.14923 -11.842499 42.80316l0 0c-15.116089 8.6539 -34.32202 3.5210571 -42.897644 -11.464569z" fill-rule="evenodd"/><path stroke="#2337fe" stroke-width="12.0" stroke-linejoin="round" stroke-linecap="butt" d="m225.20074 308.9066l0 0c-8.575638 -14.985626 -3.2735596 -34.14923 11.842514 -42.80316l0 0c7.2590027 -4.1557617 15.856613 -5.2825623 23.901474 -3.1325378c8.044891 2.1500244 14.877991 7.400757 18.996155 14.597107l0 0c8.575653 14.985626 3.2735596 34.14923 -11.842499 42.80316l0 0c-15.116089 8.6539 -34.32202 3.5210571 -42.897644 -11.464569z" fill-rule="evenodd"/><path fill="#94c1ff" d="m447.8464 375.87772l0 0c-8.575623 -14.985626 -3.2735596 -34.14923 11.842529 -42.80316l0 0c7.2590027 -4.1557617 15.856598 -5.2825623 23.90149 -3.1325378c8.044861 2.1500244 14.877991 7.400757 18.996155 14.597107l0 0c8.575623 14.985626 3.2735596 34.14923 -11.842529 42.80316l0 0c-15.116089 8.6539 -34.32202 3.5210266 -42.897644 -11.464569z" fill-rule="evenodd"/><path stroke="#2337fe" stroke-width="12.0" stroke-linejoin="round" stroke-linecap="butt" d="m447.8464 375.87772l0 0c-8.575623 -14.985626 -3.2735596 -34.14923 11.842529 -42.80316l0 0c7.2590027 -4.1557617 15.856598 -5.2825623 23.90149 -3.1325378c8.044861 2.1500244 14.877991 7.400757 18.996155 14.597107l0 0c8.575623 14.985626 3.2735596 34.14923 -11.842529 42.80316l0 0c-15.116089 8.6539 -34.32202 3.5210266 -42.897644 -11.464569z" fill-rule="evenodd"/><path fill="#94c1ff" d="m55.48158 468.58636l0 0c-8.575634 -14.985596 -3.2735558 -34.14923 11.842518 -42.80313l0 0c7.258995 -4.1557617 15.856621 -5.2825623 23.90149 -3.1325378c8.044868 2.1500244 14.877983 7.400757 18.996147 14.597107l0 0c8.575638 14.985596 3.2735596 34.14923 -11.842514 42.80313l0 0c-15.116081 8.6539 -34.322006 3.5210571 -42.89764 -11.464569z" fill-rule="evenodd"/><path stroke="#2337fe" stroke-width="12.0" stroke-linejoin="round" stroke-linecap="butt" d="m55.48158 468.58636l0 0c-8.575634 -14.985596 -3.2735558 -34.14923 11.842518 -42.80313l0 0c7.258995 -4.1557617 15.856621 -5.2825623 23.90149 -3.1325378c8.044868 2.1500244 14.877983 7.400757 18.996147 14.597107l0 0c8.575638 14.985596 3.2735596 34.14923 -11.842514 42.80313l0 0c-15.116081 8.6539 -34.322006 3.5210571 -42.89764 -11.464569z" fill-rule="evenodd"/><path fill="#000000" fill-opacity="0.0" d="m258.38748 576.01605l0 0c-49.749115 0 -90.11398 -126.608215 -90.15747 -282.78738l0 0c-0.04348755 -156.17917 40.250885 -282.7874 90.0 -282.7874l0 0c49.749115 0 90.11398 126.60824 90.15747 282.7874l0 0c0.04348755 156.17917 -40.250885 282.78738 -90.0 282.78738z" fill-rule="evenodd"/><path stroke="#2337fe" stroke-width="12.0" stroke-linejoin="round" stroke-linecap="butt" d="m258.38748 576.01605l0 0c-49.749115 0 -90.11398 -126.608215 -90.15747 -282.78738l0 0c-0.04348755 -156.17917 40.250885 -282.7874 90.0 -282.7874l0 0c49.749115 0 90.11398 126.60824 90.15747 282.7874l0 0c0.04348755 156.17917 -40.250885 282.78738 -90.0 282.78738z" fill-rule="evenodd"/><path fill="#94c1ff" d="m278.19812 93.64936l0 0c-8.575653 -14.985611 -3.2735596 -34.149235 11.842529 -42.803146l0 0c7.258972 -4.155754 15.856598 -5.2825623 23.901459 -3.1325378c8.044891 2.1500206 14.877991 7.400757 18.996155 14.597103l0 0c8.575653 14.985615 3.2735596 34.149242 -11.842499 42.80315l0 0c-15.116089 8.653915 -34.32202 3.5210495 -42.897644 -11.464569z" fill-rule="evenodd"/><path stroke="#2337fe" stroke-width="12.0" stroke-linejoin="round" stroke-linecap="butt" d="m278.19812 93.64936l0 0c-8.575653 -14.985611 -3.2735596 -34.149235 11.842529 -42.803146l0 0c7.258972 -4.155754 15.856598 -5.2825623 23.901459 -3.1325378c8.044891 2.1500206 14.877991 7.400757 18.996155 14.597103l0 0c8.575653 14.985615 3.2735596 34.149242 -11.842499 42.80315l0 0c-15.116089 8.653915 -34.32202 3.5210495 -42.897644 -11.464569z" fill-rule="evenodd"/></g></svg>